<svg width="24" height="24" viewBox="0 0 24 24" fill="none" xmlns="http://www.w3.org/2000/svg">
<path d="M21.3801 5.95663L14.6601 1.25497C12.8284 -0.0283654 10.0168 0.0416348 8.25511 1.40663L2.41011 5.9683C1.24344 6.8783 0.321777 8.74497 0.321777 10.215V18.265C0.321777 21.24 2.73678 23.6666 5.71178 23.6666H18.2884C21.2634 23.6666 23.6784 21.2516 23.6784 18.2766V10.3666C23.6784 8.79164 22.6634 6.85497 21.3801 5.95663ZM12.8751 19C12.8751 19.4783 12.4784 19.875 12.0001 19.875C11.5218 19.875 11.1251 19.4783 11.1251 19V15.5C11.1251 15.0216 11.5218 14.625 12.0001 14.625C12.4784 14.625 12.8751 15.0216 12.8751 15.5V19Z" fill="#070707"/>
</svg>
