<svg width="111" height="107" viewBox="0 0 111 107" fill="none" xmlns="http://www.w3.org/2000/svg">
<path d="M67.5334 18.9175L52.2048 91.31L79.3151 84.4025L67.5334 18.9175Z" stroke="white" stroke-width="0.35" stroke-miterlimit="10"/>
<path d="M120.349 58.9449L67.5835 18.8374L114.062 97.9399L120.349 58.9449Z" stroke="white" stroke-width="0.35" stroke-miterlimit="10"/>
<path d="M114.083 19.6375L74.9316 1L120.262 58.9475L114.083 19.6375Z" stroke="white" stroke-width="0.35" stroke-miterlimit="10"/>
<path d="M74.9316 1L29.3052 37.6575L67.6541 18.75L74.9316 1Z" stroke="white" stroke-width="0.35" stroke-miterlimit="10"/>
<path d="M0.891846 71.7177L51.9925 91.2227L29.3052 37.6577L0.891846 71.7177Z" stroke="white" stroke-width="0.35" stroke-miterlimit="10"/>
<path d="M114.083 97.9775L79.4014 84.2925L74.6746 100.567L114.083 97.9775Z" stroke="white" stroke-width="0.35" stroke-miterlimit="10"/>
<path d="M51.9927 91.2227L48.3672 112.975L74.6751 100.568L51.9927 91.2227Z" stroke="white" stroke-width="0.35" stroke-miterlimit="10"/>
<path d="M0.891846 71.7173L8.00171 117.087L48.367 112.975L0.891846 71.7173Z" stroke="white" stroke-width="0.35" stroke-miterlimit="10"/>
</svg>
